<?xml version="1.0" encoding="UTF-8" standalone="no"?>
<svg xmlns="http://www.w3.org/2000/svg" width="800" height="800" viewBox="0 0 800 800">
  <!-- Background Circle -->
  <circle cx="400" cy="400" r="390" fill="#92d3e1" stroke="#000000" stroke-width="2"/>
  
  <!-- Pen/Nib Shape -->
  <path d="M400,120 L320,450 C320,520 400,550 400,620 L480,450 C480,520 400,550 400,620 L400,120" fill="#2D2D2D"/>
  
  <!-- White Nib Tip -->
  <path d="M400,120 L350,240 L450,240 L400,120" fill="white"/>
  
  <!-- Light Bulb -->
  <ellipse cx="400" cy="550" rx="60" ry="70" fill="white"/>
  <path d="M380,550 C380,520 420,520 420,550" fill="none" stroke="black" stroke-width="1"/>
  <path d="M380,560 C380,590 420,590 420,560" fill="none" stroke="black" stroke-width="1"/>
  
  <!-- Bulb Connector -->
  <rect x="380" y="480" width="40" height="30" fill="white"/>
  
  <!-- Text Box -->
  <rect x="250" y="670" width="300" height="80" fill="#2D2D2D"/>
  <text x="400" y="725" font-family="Arial, sans-serif" font-size="60" font-weight="bold" fill="white" text-anchor="middle">csfworld</text>
</svg> 